<svg width="24" height="24" viewBox="0 0 24 24" fill="none" xmlns="http://www.w3.org/2000/svg">
<path d="M11.9999 22.8908C11.8991 22.8908 11.6974 22.8908 11.5966 22.7899C11.3949 22.5882 11.3949 22.2857 11.5966 22.084L21.6806 12L11.5966 1.91598C11.3949 1.7143 11.3949 1.41178 11.5966 1.2101C11.7983 1.00842 12.1008 1.00842 12.3025 1.2101L22.689 11.5967C22.7898 11.6975 22.7898 11.7983 22.7898 12C22.7898 12.2017 22.689 12.3025 22.689 12.4034L12.3025 22.7899C12.2016 22.8908 12.1008 22.8908 11.9999 22.8908Z" fill="#495966"/>
<path d="M22.3865 12.5043H1.5125C1.20998 12.5043 1.0083 12.3026 1.0083 12.0001C1.0083 11.6975 1.20998 11.4958 1.5125 11.4958H22.3865C22.689 11.4958 22.8907 11.6975 22.8907 12.0001C22.8907 12.3026 22.689 12.5043 22.3865 12.5043Z" fill="#495966"/>
</svg>
