<svg width="24" height="24" viewBox="0 0 24 24" fill="none" xmlns="http://www.w3.org/2000/svg">
<path d="M11.9001 22.7001C11.8001 22.7001 11.6001 22.7001 11.5001 22.6C11.3001 22.4 11.3001 22.1 11.5001 21.9L21.5001 11.9L11.5001 1.90005C11.3001 1.70005 11.3001 1.40005 11.5001 1.20005C11.7001 1.00005 12.0001 1.00005 12.2001 1.20005L22.5001 11.5C22.6001 11.6 22.6001 11.7 22.6001 11.9C22.6001 12.1 22.5001 12.2 22.5001 12.3L12.2001 22.6C12.1001 22.7001 12.0001 22.7001 11.9001 22.7001Z" fill="#EC6B23"/>
<path d="M22.2 12.4H1.5C1.2 12.4 1 12.2 1 11.9C1 11.6 1.2 11.4 1.5 11.4H22.2C22.5 11.4 22.7 11.6 22.7 11.9C22.7 12.2 22.5 12.4 22.2 12.4Z" fill="#EC6B23"/>
</svg>
