<svg width="24" height="24" viewBox="0 0 24 24" fill="none" xmlns="http://www.w3.org/2000/svg">
<path d="M11.9001 22.7001C11.8001 22.7001 11.6001 22.7 11.5001 22.6C11.3001 22.4 11.3001 22.1 11.5001 21.9L21.5001 11.9L11.5001 1.90005C11.3001 1.70005 11.3001 1.40005 11.5001 1.20005C11.7001 1.00005 12.0001 1.00005 12.2001 1.20005L22.5001 11.5C22.6001 11.6 22.6001 11.7 22.6001 11.9C22.6001 12.1 22.5001 12.2 22.5001 12.3L12.2001 22.6C12.1001 22.7 12.0001 22.7001 11.9001 22.7001Z" fill="white"/>
<path d="M22.2 12.3999H1.5C1.2 12.3999 1 12.1999 1 11.8999C1 11.5999 1.2 11.3999 1.5 11.3999H22.2C22.5 11.3999 22.7 11.5999 22.7 11.8999C22.7 12.1999 22.5 12.3999 22.2 12.3999Z" fill="white"/>
</svg>
